<?xml version="1.0" encoding="UTF-8"?>
<svg xmlns="http://www.w3.org/2000/svg" xmlns:xlink="http://www.w3.org/1999/xlink" viewBox="31.3672 119.4414 382.8828 72.7383">
<path fill-rule="nonzero" fill="rgb(91.052246%, 84.100342%, 75.456238%)" fill-opacity="1" d="M 35.367188 188.179688 L 35.367188 155.851562 L 100.027344 155.851562 L 100.027344 188.179688 Z M 35.367188 188.179688 "/>
<path fill-rule="nonzero" fill="rgb(64.001465%, 84.172058%, 11.291504%)" fill-opacity="1" d="M 67.695312 139.609375 C 76.625 139.609375 83.863281 132.371094 83.863281 123.441406 L 51.53125 123.441406 C 51.53125 132.371094 58.769531 139.609375 67.695312 139.609375 "/>
<path fill-rule="nonzero" fill="rgb(22.453308%, 61.564636%, 62.413025%)" fill-opacity="1" d="M 83.863281 123.445312 C 83.863281 132.371094 76.625 139.605469 67.695312 139.605469 C 58.769531 139.605469 51.53125 132.371094 51.53125 123.445312 L 35.367188 123.445312 C 35.367188 141.296875 49.839844 155.773438 67.695312 155.773438 C 85.550781 155.773438 100.027344 141.296875 100.027344 123.445312 Z M 83.863281 123.445312 "/>
<path fill-rule="nonzero" fill="rgb(64.001465%, 84.172058%, 11.291504%)" fill-opacity="1" d="M 67.695312 172.015625 C 58.769531 172.015625 51.53125 179.25 51.53125 188.179688 L 83.863281 188.179688 C 83.863281 179.25 76.625 172.015625 67.695312 172.015625 "/>
<path fill-rule="nonzero" fill="rgb(88.168335%, 15.887451%, 14.544678%)" fill-opacity="1" d="M 51.53125 188.179688 C 51.53125 179.25 58.769531 172.015625 67.695312 172.015625 C 76.625 172.015625 83.863281 179.25 83.863281 188.179688 L 100.027344 188.179688 C 100.027344 170.324219 85.550781 155.851562 67.695312 155.851562 C 49.839844 155.851562 35.367188 170.324219 35.367188 188.179688 Z M 51.53125 188.179688 "/>
<path fill-rule="nonzero" fill="rgb(0%, 0%, 0%)" fill-opacity="1" d="M 244.664062 174.4375 L 244.664062 173.5 L 246.082031 173.421875 C 248.691406 173.261719 249.324219 173.105469 249.324219 162.988281 L 249.324219 148.636719 C 249.324219 142.519531 246.796875 139.300781 242.609375 139.300781 C 238.664062 139.300781 235.824219 142.046875 234.085938 145.816406 C 234.480469 147.304688 234.71875 148.714844 234.71875 150.597656 L 234.71875 162.988281 C 234.71875 173.105469 235.347656 173.261719 237.949219 173.421875 L 239.371094 173.5 L 239.371094 174.4375 L 219.558594 174.4375 L 219.558594 173.5 L 220.980469 173.421875 C 223.582031 173.261719 224.214844 173.105469 224.214844 162.988281 L 224.214844 148.636719 C 224.214844 142.519531 221.6875 139.300781 217.503906 139.300781 C 213.953125 139.300781 211.351562 141.5 209.53125 144.71875 L 209.53125 162.988281 C 209.53125 173.105469 210.246094 173.261719 212.847656 173.421875 L 214.269531 173.5 L 214.269531 174.4375 L 194.21875 174.4375 L 194.21875 173.5 L 195.792969 173.421875 C 198.398438 173.339844 199.035156 173.105469 199.035156 162.988281 L 199.035156 149.652344 C 199.035156 139.539062 198.398438 139.382812 195.792969 139.222656 L 194.21875 139.148438 L 194.21875 138.203125 L 209.375 138.203125 L 209.375 143.304688 C 211.191406 140.164062 214.507812 137.265625 220.582031 137.265625 C 226.347656 137.265625 231.5625 139.699219 233.6875 144.632812 C 235.664062 140.324219 239.292969 137.265625 245.691406 137.265625 C 253.191406 137.265625 259.820312 140.949219 259.820312 150.597656 L 259.820312 162.988281 C 259.820312 173.105469 260.535156 173.339844 263.058594 173.421875 L 264.636719 173.5 L 264.636719 174.4375 Z M 244.664062 174.4375 "/>
<path fill-rule="nonzero" fill="rgb(22.453308%, 61.564636%, 62.413025%)" fill-opacity="1" d="M 300.519531 174.359375 L 288.832031 147.617188 L 278.886719 174.359375 L 274.464844 174.359375 L 263.648438 147.382812 C 260.730469 140.246094 259.859375 138.992188 257.414062 138.675781 L 256.859375 138.597656 L 256.859375 137.65625 L 276.59375 137.65625 L 276.59375 138.597656 L 275.171875 138.675781 C 272.492188 138.832031 272.332031 140.792969 274.78125 147.066406 L 281.492188 164.164062 L 291.28125 137.34375 L 296.019531 137.34375 L 307.546875 164.164062 L 311.886719 152.085938 C 314.019531 146.203125 312.753906 138.832031 309.359375 138.675781 L 308.015625 138.597656 L 308.015625 137.65625 L 321.515625 137.65625 L 321.515625 138.597656 L 320.886719 138.675781 C 318.675781 138.992188 317.175781 140.949219 313.152344 152.085938 L 305.019531 174.359375 Z M 300.519531 174.359375 "/>
<path fill-rule="nonzero" fill="rgb(22.453308%, 61.564636%, 62.413025%)" fill-opacity="1" d="M 333.21875 172.871094 C 336.222656 172.871094 339.300781 170.59375 340.800781 167.460938 L 340.800781 157.109375 C 338.671875 156.085938 336.539062 155.460938 333.859375 155.460938 C 330.226562 155.460938 326.832031 157.496094 326.832031 164.792969 C 326.832031 170.832031 329.671875 172.871094 333.21875 172.871094 M 340.960938 173.890625 L 340.960938 168.871094 C 339.226562 171.929688 336.0625 174.832031 329.273438 174.832031 C 321.617188 174.832031 315.933594 170.910156 315.933594 164.480469 C 315.933594 157.578125 321.457031 154.125 330.695312 154.125 C 335.117188 154.125 337.804688 154.675781 340.800781 156.007812 L 340.800781 146.203125 C 340.800781 140.714844 338.273438 137.734375 333.144531 137.734375 C 329.671875 137.734375 328.167969 138.597656 328.167969 139.851562 C 328.167969 141.261719 329.988281 142.125 329.988281 144.871094 C 329.988281 147.539062 327.777344 149.65625 324.535156 149.65625 C 320.902344 149.65625 318.777344 147.539062 318.777344 144.792969 C 318.777344 140.089844 324.066406 136.714844 333.457031 136.714844 C 342.382812 136.714844 351.304688 140.476562 351.304688 149.578125 L 351.304688 162.441406 C 351.304688 172.554688 351.933594 172.792969 354.539062 172.871094 L 356.117188 172.949219 L 356.117188 173.890625 Z M 340.960938 173.890625 "/>
<path fill-rule="nonzero" fill="rgb(0%, 0%, 0%)" fill-opacity="1" d="M 147.765625 174.910156 C 134.183594 174.910156 127.320312 166.046875 127.320312 155.851562 C 127.320312 144.480469 135.136719 136.714844 147.921875 136.714844 C 156.691406 136.714844 162.210938 140.949219 162.210938 145.96875 C 162.210938 149.183594 159.847656 151.382812 156.367188 151.382812 C 153.210938 151.382812 150.6875 149.183594 150.6875 146.125 C 150.6875 142.832031 153.058594 141.8125 153.058594 140.089844 C 153.058594 138.910156 151.792969 137.734375 148.003906 137.734375 C 139.710938 137.734375 138.683594 145.109375 138.683594 155.304688 C 138.683594 164.792969 140.503906 173.261719 149.503906 173.261719 C 155.738281 173.261719 160.320312 170.28125 161.972656 164.164062 L 163.003906 164.402344 C 161.421875 171.144531 156.136719 174.910156 147.765625 174.910156 "/>
<path fill-rule="nonzero" fill="rgb(0%, 0%, 0%)" fill-opacity="1" d="M 161.691406 174.398438 L 161.691406 173.457031 L 163.273438 173.378906 C 165.875 173.300781 166.511719 173.066406 166.511719 162.949219 L 166.511719 149.617188 C 166.511719 139.5 165.875 139.34375 163.273438 139.183594 L 161.691406 139.105469 L 161.691406 138.164062 L 176.847656 138.164062 L 176.847656 143.496094 C 178.828125 139.34375 181.746094 137.222656 185.617188 137.222656 C 190.117188 137.222656 194.21875 140.125 194.21875 144.519531 C 194.21875 148.203125 191.613281 150.007812 188.613281 150.007812 C 185.535156 150.007812 183.167969 148.046875 183.167969 145.382812 C 183.167969 142.007812 186.085938 141.617188 186.085938 139.890625 C 186.085938 139.183594 185.457031 138.632812 184.113281 138.632812 C 181.746094 138.632812 179.144531 140.363281 177.007812 144.910156 L 177.007812 162.949219 C 177.007812 173.066406 177.722656 173.300781 181.117188 173.378906 L 183.484375 173.457031 L 183.484375 174.398438 Z M 161.691406 174.398438 "/>
<path fill-rule="nonzero" fill="rgb(22.453308%, 61.564636%, 62.413025%)" fill-opacity="1" d="M 396.273438 173.261719 C 386.328125 173.261719 384.984375 164.085938 384.984375 155.304688 L 384.984375 153.96875 L 410.25 153.96875 C 410.25 143.691406 404.71875 136.714844 392.402344 136.714844 C 390.386719 136.714844 388.414062 137.035156 386.519531 137.566406 C 387.058594 138.195312 387.53125 138.871094 387.898438 139.605469 C 389.042969 138.394531 390.5625 137.734375 392.640625 137.734375 C 398.484375 137.734375 399.75 143.617188 399.75 152.949219 L 380 152.949219 C 377.707031 152.949219 375.710938 152.019531 374.160156 150.765625 C 373.828125 152.332031 373.613281 154.003906 373.613281 155.851562 C 373.613281 166.046875 380.410156 174.910156 394.539062 174.910156 C 402.984375 174.910156 408.511719 171.066406 410.171875 164.402344 L 409.066406 164.164062 C 407.484375 170.28125 402.667969 173.261719 396.273438 173.261719 "/>
<path fill-rule="nonzero" fill="rgb(22.453308%, 61.564636%, 62.413025%)" fill-opacity="1" d="M 353.074219 173.890625 L 353.074219 172.949219 L 354.65625 172.871094 C 357.261719 172.792969 357.894531 172.554688 357.894531 162.441406 L 357.894531 149.105469 C 357.894531 138.992188 357.261719 138.832031 354.65625 138.675781 L 353.074219 138.597656 L 353.074219 137.65625 L 368.234375 137.65625 L 368.234375 142.988281 C 370.214844 138.832031 373.132812 136.714844 377.003906 136.714844 C 381.5 136.714844 385.601562 139.617188 385.601562 144.007812 C 385.601562 147.695312 383 149.5 379.996094 149.5 C 376.917969 149.5 374.554688 147.539062 374.554688 144.871094 C 374.554688 141.5 377.472656 141.105469 377.472656 139.382812 C 377.472656 138.675781 376.839844 138.125 375.5 138.125 C 373.132812 138.125 370.527344 139.851562 368.394531 144.402344 L 368.394531 162.441406 C 368.394531 172.554688 369.109375 172.792969 372.5 172.871094 L 374.867188 172.949219 L 374.867188 173.890625 Z M 353.074219 173.890625 "/>
</svg>
